<svg xmlns="http://www.w3.org/2000/svg" width="8.725" height="19.139" viewBox="0 0 8.725 19.139"><g transform="translate(-295.409 -1206.814)"><path d="M122.6,122.782V106.713a1.805,1.805,0,0,1,1.994-1.535h0a1.809,1.809,0,0,1,2,1.535h0v16.069a1.813,1.813,0,0,1-2,1.535h0a1.809,1.809,0,0,1-1.994-1.535Zm.721-16.069v16.069c0,.346.488.812,1.273.814h0c.783,0,1.276-.468,1.276-.814h0V106.713c0-.348-.492-.814-1.276-.817h0c-.786,0-1.273.468-1.273.817Z" transform="translate(177.544 1101.636)" fill="#f2780e"/><path d="M124.6,109.725v6.4c0,.291-.329.529-.733.529h0c-.4,0-.735-.238-.735-.529v-6.4Z" transform="translate(178.289 1108.013)" fill="#f2780e"/><g transform="translate(295.409 1208.395)"><path d="M121.253,112.7a.18.18,0,0,1-.18-.18h0a.18.18,0,0,1,.18-.18h1.295a.18.18,0,0,1,.18.18h0a.18.18,0,0,1-.18.18h-1.295Z" transform="translate(-120.006 -96.721)" fill="#f2780e"/><path d="M121.253,111.861a.179.179,0,0,1-.18-.178h0a.182.182,0,0,1,.18-.18h1.295a.181.181,0,0,1,.18.18h0a.179.179,0,0,1-.18.178h-1.295Z" transform="translate(-120.006 -97.889)" fill="#f2780e"/><path d="M121.253,111.03a.184.184,0,0,1-.18-.183h0a.179.179,0,0,1,.18-.178h1.295a.179.179,0,0,1,.18.178h0a.184.184,0,0,1-.18.183h-1.295Z" transform="translate(-120.006 -99.057)" fill="#f2780e"/><path d="M121.253,110.2a.18.18,0,0,1-.18-.18h0a.18.18,0,0,1,.18-.18h1.295a.18.18,0,0,1,.18.18h0a.18.18,0,0,1-.18.18h-1.295Z" transform="translate(-120.006 -100.227)" fill="#f2780e"/><path d="M120.867,109.544a.241.241,0,0,1-.238-.243h0a.239.239,0,0,1,.238-.24h2.3a.239.239,0,0,1,.24.24h0a.241.241,0,0,1-.24.243h-2.3Z" transform="translate(-120.629 -101.314)" fill="#f2780e"/><path d="M121.253,108.7a.18.18,0,0,1-.18-.18h0a.18.18,0,0,1,.18-.18h1.295a.18.18,0,0,1,.18.18h0a.18.18,0,0,1-.18.18h-1.295Z" transform="translate(-120.006 -102.33)" fill="#f2780e"/><path d="M121.253,107.861a.179.179,0,0,1-.18-.178h0a.182.182,0,0,1,.18-.18h1.295a.181.181,0,0,1,.18.18h0a.179.179,0,0,1-.18.178h-1.295Z" transform="translate(-120.006 -103.498)" fill="#f2780e"/><path d="M121.253,107.028a.182.182,0,0,1-.18-.18h0a.179.179,0,0,1,.18-.178h1.295a.179.179,0,0,1,.18.178h0a.181.181,0,0,1-.18.18h-1.295Z" transform="translate(-120.006 -104.666)" fill="#f2780e"/><path d="M121.253,106.2a.18.18,0,0,1-.18-.18h0a.18.18,0,0,1,.18-.18h1.295a.18.18,0,0,1,.18.18h0a.18.18,0,0,1-.18.18h-1.295Z" transform="translate(-120.006 -105.836)" fill="#f2780e"/></g></g></svg>