<svg xmlns="http://www.w3.org/2000/svg" width="12.325" height="17.92" viewBox="0 0 12.325 17.92"><path d="M92.613,124.11a6.194,6.194,0,0,1-6.161-6.308h0a6.626,6.626,0,0,1,.9-3.341h0c2.273-3.917,4.4-4.783,4.6-7.638h0c0-.361.48-.6.595-.6h0a.99.99,0,0,1,.448.112h0l.217.118.032.243c.339,2.929,2.391,3.865,4.652,7.769h0a6.765,6.765,0,0,1,.876,3.309h0a6.193,6.193,0,0,1-6.164,6.35h0v-.01Zm-4.418-9.176a5.7,5.7,0,0,0-.771,2.868h0a5.223,5.223,0,0,0,5.247,5.352h0v.006a5.227,5.227,0,0,0,5.144-5.39h0a5.807,5.807,0,0,0-.748-2.836h0c-1.746-3.095-3.61-4.291-4.434-6.65h0c-.755,2.395-2.692,3.542-4.438,6.65Z" transform="translate(-86.452 -106.219)" fill="#f2780e"/></svg>