<svg xmlns="http://www.w3.org/2000/svg" width="17.357" height="8.769" viewBox="0 0 17.357 8.769"><path d="M131.166,109.182a.406.406,0,0,1,.412-.4h0a2.549,2.549,0,0,0,1.805-.708h0a3.442,3.442,0,0,1,2.326-.885h0a3.44,3.44,0,0,1,2.323.885h0a2.56,2.56,0,0,0,1.808.708h0a2.562,2.562,0,0,0,1.81-.708h0a3.442,3.442,0,0,1,2.326-.885h0a3.429,3.429,0,0,1,2.323.885h0a2.563,2.563,0,0,0,1.813.708h0a.406.406,0,0,1,.412.4h0a.407.407,0,0,1-.412.4h0a3.426,3.426,0,0,1-2.328-.887h0a2.591,2.591,0,0,0-1.808-.708h0a2.593,2.593,0,0,0-1.81.708h0a3.419,3.419,0,0,1-2.326.887h0a3.417,3.417,0,0,1-2.323-.887h0a2.591,2.591,0,0,0-1.808-.708h0a2.591,2.591,0,0,0-1.808.708h0a3.407,3.407,0,0,1-2.323.887h0a.407.407,0,0,1-.412-.4Z" transform="translate(-131.166 -107.189)" fill="#f2780e"/><path d="M131.166,110.515a.405.405,0,0,1,.412-.4h0a2.569,2.569,0,0,0,1.805-.708h0a3.419,3.419,0,0,1,2.326-.887h0a3.417,3.417,0,0,1,2.323.887h0a2.581,2.581,0,0,0,1.808.708h0a2.582,2.582,0,0,0,1.81-.708h0a3.419,3.419,0,0,1,2.326-.887h0a3.407,3.407,0,0,1,2.323.887h0a2.584,2.584,0,0,0,1.813.708h0a.405.405,0,0,1,.412.4h0a.406.406,0,0,1-.412.4h0a3.437,3.437,0,0,1-2.328-.885h0a2.571,2.571,0,0,0-1.808-.71h0a2.573,2.573,0,0,0-1.81.71h0a3.43,3.43,0,0,1-2.326.885h0a3.428,3.428,0,0,1-2.323-.885h0a2.571,2.571,0,0,0-1.808-.71h0a2.571,2.571,0,0,0-1.808.71h0a3.418,3.418,0,0,1-2.323.885h0a.406.406,0,0,1-.412-.4Z" transform="translate(-131.166 -105.334)" fill="#f2780e"/><path d="M131.166,111.85a.406.406,0,0,1,.412-.4h0a2.559,2.559,0,0,0,1.805-.708h0a3.442,3.442,0,0,1,2.326-.887h0a3.44,3.44,0,0,1,2.323.887h0a2.57,2.57,0,0,0,1.808.708h0a2.572,2.572,0,0,0,1.81-.708h0a3.442,3.442,0,0,1,2.326-.887h0a3.429,3.429,0,0,1,2.323.887h0a2.585,2.585,0,0,0,1.813.71h0a.4.4,0,0,1,.412.4h0a.4.4,0,0,1-.412.4h0a3.449,3.449,0,0,1-2.328-.883h0a2.561,2.561,0,0,0-1.808-.71h0a2.562,2.562,0,0,0-1.81.71h0a3.441,3.441,0,0,1-2.326.883h0a3.439,3.439,0,0,1-2.323-.883h0a2.561,2.561,0,0,0-1.808-.71h0a2.561,2.561,0,0,0-1.808.71h0a3.429,3.429,0,0,1-2.323.883h0a.4.4,0,0,1-.412-.4Z" transform="translate(-131.166 -103.478)" fill="#f2780e"/></svg>