<svg xmlns="http://www.w3.org/2000/svg" width="26.349" height="57.798" viewBox="0 0 26.349 57.798"><g transform="translate(-1697.736 -664.101)"><path d="M122.6,158.34V109.814c.08-2.866,2.945-4.636,6.021-4.636h0c3.083,0,5.934,1.77,6.029,4.636h0V158.34c-.094,2.858-2.945,4.628-6.029,4.636h0c-3.076-.007-5.942-1.777-6.021-4.636Zm2.176-48.526V158.34c0,1.045,1.473,2.452,3.845,2.459h0c2.365-.007,3.852-1.415,3.852-2.459h0V109.814c0-1.052-1.487-2.459-3.852-2.467h0c-2.372.007-3.845,1.415-3.845,2.467Z" transform="translate(1589.434 558.923)" fill="#fff"/><path d="M127.564,109.725v19.326c0,.878-.994,1.6-2.213,1.6h0c-1.219,0-2.22-.718-2.22-1.6V109.725Z" transform="translate(1592.756 587.363)" fill="#fff"/><g transform="translate(1697.736 668.874)"><path d="M121.617,113.424a.543.543,0,0,1-.544-.544h0a.543.543,0,0,1,.544-.544h3.91a.543.543,0,0,1,.544.544h0a.543.543,0,0,1-.544.544h-3.91Z" transform="translate(-117.852 -65.181)" fill="#fff"/><path d="M121.617,112.584a.542.542,0,0,1-.544-.537h0a.548.548,0,0,1,.544-.544h3.91a.548.548,0,0,1,.544.544h0a.542.542,0,0,1-.544.537h-3.91Z" transform="translate(-117.852 -70.391)" fill="#fff"/><path d="M121.617,111.758a.554.554,0,0,1-.544-.551h0a.542.542,0,0,1,.544-.537h3.91a.542.542,0,0,1,.544.537h0a.554.554,0,0,1-.544.551h-3.91Z" transform="translate(-117.852 -75.601)" fill="#fff"/><path d="M121.617,110.924a.543.543,0,0,1-.544-.544h0a.543.543,0,0,1,.544-.544h3.91a.543.543,0,0,1,.544.544h0a.543.543,0,0,1-.544.544h-3.91Z" transform="translate(-117.852 -80.817)" fill="#fff"/><path d="M121.347,110.519a.728.728,0,0,1-.718-.733h0a.721.721,0,0,1,.718-.725H128.3a.723.723,0,0,1,.725.725h0a.729.729,0,0,1-.725.733h-6.957Z" transform="translate(-120.629 -85.665)" fill="#fff"/><path d="M121.617,109.424a.543.543,0,0,1-.544-.544h0a.543.543,0,0,1,.544-.544h3.91a.543.543,0,0,1,.544.544h0a.543.543,0,0,1-.544.544h-3.91Z" transform="translate(-117.852 -90.199)" fill="#fff"/><path d="M121.617,108.584a.542.542,0,0,1-.544-.537h0a.548.548,0,0,1,.544-.544h3.91a.548.548,0,0,1,.544.544h0a.542.542,0,0,1-.544.537h-3.91Z" transform="translate(-117.852 -95.409)" fill="#fff"/><path d="M121.617,107.751a.548.548,0,0,1-.544-.544h0a.542.542,0,0,1,.544-.537h3.91a.542.542,0,0,1,.544.537h0a.548.548,0,0,1-.544.544h-3.91Z" transform="translate(-117.852 -100.62)" fill="#fff"/><path d="M121.617,106.924a.543.543,0,0,1-.544-.544h0a.543.543,0,0,1,.544-.544h3.91a.543.543,0,0,1,.544.544h0a.543.543,0,0,1-.544.544h-3.91Z" transform="translate(-117.852 -105.836)" fill="#fff"/></g></g></svg>