<svg xmlns="http://www.w3.org/2000/svg" width="24.451" height="35.55" viewBox="0 0 24.451 35.55"><path d="M98.674,141.712A12.288,12.288,0,0,1,86.452,129.2h0a13.146,13.146,0,0,1,1.789-6.628h0c4.51-7.77,8.721-9.488,9.133-15.152h0c0-.717.951-1.2,1.18-1.2h0a1.965,1.965,0,0,1,.888.222h0l.431.235.063.482c.672,5.81,4.744,7.668,9.228,15.412h0a13.421,13.421,0,0,1,1.738,6.565h0a12.285,12.285,0,0,1-12.228,12.6h0v-.019Zm-8.765-18.2A11.311,11.311,0,0,0,88.38,129.2h0a10.361,10.361,0,0,0,10.408,10.617h0v.013c6.33-.133,10.18-5.214,10.205-10.694h0a11.52,11.52,0,0,0-1.484-5.626h0c-3.463-6.14-7.161-8.512-8.8-13.193h0c-1.5,4.751-5.341,7.028-8.8,13.193Z" transform="translate(-86.452 -106.219)" fill="#fff"/></svg>