<svg xmlns="http://www.w3.org/2000/svg" width="30.268" height="23.25" viewBox="0 0 30.268 23.25"><g transform="translate(-3876.482 -42.75)"><line x2="23" transform="translate(3880.5 65.5)" fill="none" stroke="#fff" stroke-linecap="round" stroke-width="1"/><line x2="23" transform="translate(3880.5 61.5)" fill="none" stroke="#fff" stroke-linecap="round" stroke-width="1"/><g transform="translate(3884 50.7)" fill="none"><path d="M7.5,0A7.5,7.5,0,0,1,15,7.5a7.75,7.75,0,0,1-1.007,3.755H1.048A6.425,6.425,0,0,1,0,7.5,7.5,7.5,0,0,1,7.5,0Z" stroke="none"/><path d="M 7.5 1 C 3.915889739990234 1 1 3.915890216827393 1 7.500000476837158 C 1 8.572362899780273 1.204009056091309 9.496603012084961 1.607343673706055 10.25548076629639 L 13.37312316894531 10.25548076629639 C 13.80439567565918 9.311121940612793 14 8.441952705383301 14 7.500000476837158 C 14 3.915890216827393 11.08411026000977 1 7.5 1 M 7.5 0 C 11.64213943481445 0 15 3.357860565185547 15 7.500000476837158 C 15 8.759210586547852 14.6896800994873 9.945940017700195 13.99345970153809 11.25548076629639 C 8.62716007232666 11.25548076629639 2.880220413208008 11.25548076629639 1.047849655151367 11.25548076629639 C 0.3899202346801758 10.30891990661621 0 9.074010848999023 0 7.500000476837158 C 0 3.357860565185547 3.35785961151123 0 7.5 0 Z" stroke="none" fill="#fff"/></g><line y2="5" transform="translate(3892 43.5)" fill="none" stroke="#fff" stroke-linecap="round" stroke-width="1.5"/><line x2="1.457" y2="2.732" transform="translate(3887.5 46.5)" fill="none" stroke="#fff" stroke-linecap="round" stroke-width="1.5"/><line x1="1.457" y2="2.732" transform="translate(3895.043 46.5)" fill="none" stroke="#fff" stroke-linecap="round" stroke-width="1.5"/><line x1="2.73" y2="1.732" transform="translate(3900.272 52.5)" fill="none" stroke="#fff" stroke-linecap="round" stroke-width="1.5"/><line x1="2.73" y1="1.732" transform="translate(3880.5 52.5)" fill="none" stroke="#fff" stroke-linecap="round" stroke-width="1.5"/><line y2="5" transform="translate(3882.232 47.464) rotate(-45)" fill="none" stroke="#fff" stroke-linecap="round" stroke-width="1.5"/><line y2="5" transform="translate(3906 57.5) rotate(90)" fill="none" stroke="#fff" stroke-linecap="round" stroke-width="1.5"/><line y2="5" transform="translate(3901.768 47.464) rotate(45)" fill="none" stroke="#fff" stroke-linecap="round" stroke-width="1.5"/><line y2="5" transform="translate(3882.232 57.5) rotate(90)" fill="none" stroke="#fff" stroke-linecap="round" stroke-width="1.5"/></g></svg>