<svg xmlns="http://www.w3.org/2000/svg" xmlns:xlink="http://www.w3.org/1999/xlink" width="277.959" height="166.243" viewBox="0 0 277.959 166.243"><defs><linearGradient id="a" x1="0.5" x2="0.5" y2="1" gradientUnits="objectBoundingBox"><stop offset="0" stop-color="#fff"/><stop offset="1" stop-color="gray" stop-opacity="0.988"/></linearGradient></defs><g transform="translate(-345.045 -562.311)"><path d="M963.3,494.044c.056-.673.08-1.354.08-2.041,0-.589-.048-1.169-.09-1.749a24.587,24.587,0,0,0-1.345-6.494,24.732,24.732,0,0,0-22.11-16.549c-.44-.022-.871-.066-1.314-.066a24.642,24.642,0,0,0-12.857,3.581,28.022,28.022,0,0,0-4.519-10.88,17.421,17.421,0,0,0-3.441-4.131,29.6,29.6,0,0,0-22.526-8.612,29.124,29.124,0,0,0-27.7,24.62,23.668,23.668,0,0,0-7.838-1.332c-13.713,0-21.386,6.642-26.44,16.343a32.775,32.775,0,0,1,12.348,1.041c3.591,1,11.359,3.449,16.139,8.039,4.841,4.65,6.77,11.492,12.167,12.792,5.267,1.269,10.586-10.344,15.336-10.333,10.372.024,5.893-1.989,13.994-1.687,16.377.61,8.163,2.083,21.377,5.509,15.975,4.143.284,18.827,14.308,22.835,18.315,5.234,27.367,14.14,28.619,12.628,11.146-9.784,13.147-20.585,12.823-25.3C979.245,501.486,971.932,496.706,963.3,494.044Z" transform="translate(-183.789 -108.816) rotate(17)" fill="url(#a)"/><path d="M1037.434,517.922c.084-1.015.12-2.043.12-3.078,0-.889-.073-1.763-.136-2.638a37.087,37.087,0,0,0-2.029-9.795,37.3,37.3,0,0,0-33.347-24.959c-.664-.034-1.313-.1-1.982-.1a37.165,37.165,0,0,0-19.39,5.4,42.262,42.262,0,0,0-6.816-16.409,26.274,26.274,0,0,0-5.189-6.23,44.636,44.636,0,0,0-33.973-12.988c-21.645,1.08-38.823,16.849-41.784,37.131a35.694,35.694,0,0,0-11.821-2.009,37.539,37.539,0,0,0-37.5,37.5c0,.384.01.758.042,1.156-10.467,2.864-25.312,8.978-25.291,30.3.021,16.971,15.075,30.781,33.561,30.781l1.778-.039c11.5-.57,59.149.039,59.149.031l.011-.787c.083.01.167.023.251.034l.031.75-.01-.743c6.334.856,21.007.885,55.127.952,0,0,25.687.432,44.3.432h.032c6.989,0,12.993-.06,16.315-.23a31.96,31.96,0,0,0,23.089-12.013,35.6,35.6,0,0,0,8.311-24.119C1059.623,533.066,1050.454,521.937,1037.434,517.922Zm7.46,46.583a22.948,22.948,0,0,1-16.467,8.7c-3.233.162-9.071.215-15.86.215h-.032c-18.548,0-44.132-.432-44.21-.432-21.274-.042-53.542-.125-55.227-.191l-.116,2.079-.036-2.092s-22.032-.28-39.833-.28c-8.553,0-16.137.065-19.9.256l-1.318.032c-13.417,0-24.354-9.687-24.365-21.6-.01-14.177,7.751-18.788,22.095-22.332l3.248-1.378.3-3.262-.156-2.006a18.2,18.2,0,0,1-.235-2.464,28.333,28.333,0,0,1,28.3-28.3,27.808,27.808,0,0,1,13.731,3.724l6.983,3.912-.136-8c-.313-18.546,14.4-33.822,33.488-34.769l1.862-.047a35.693,35.693,0,0,1,22.372,7.8,2.825,2.825,0,0,0,1.193,1,33.5,33.5,0,0,1,11.533,23.6c.036.654,0,1.292-.083,2.956l-.445,11.855,8.311-8.461a28.265,28.265,0,0,1,47.888,25.466l-.936,4.627,4.65.816c11.032,1.941,19.087,10.488,19.6,20.777A26.321,26.321,0,0,1,1044.894,564.5Z" transform="translate(-473.293 145.94)" fill="#fff"/></g></svg>