<svg xmlns="http://www.w3.org/2000/svg" width="196.214" height="190" viewBox="0 0 196.214 190"><g transform="translate(-266.357 -349.439)"><path d="M394.469,525.709a48.147,48.147,0,1,1,48.151-48.147A48.2,48.2,0,0,1,394.469,525.709Zm0-87.894a39.747,39.747,0,1,0,39.749,39.747A39.789,39.789,0,0,0,394.469,437.815Z" transform="translate(-29.666 -29.669)" fill="#ffe650"/><g transform="translate(296.57 376.359)"><path d="M345.138,421.812a3.353,3.353,0,0,1-.306,4.721h0a3.343,3.343,0,0,1-4.722-.311l-24.9-28.441a3.347,3.347,0,0,1,.311-4.714h0a3.343,3.343,0,0,1,4.726.311Z" transform="translate(-314.388 -392.236)" fill="#ffe650"/></g><g transform="translate(361.329 349.439)"><path d="M424.294,390.557a3.339,3.339,0,0,1-3.316,3.364h0a3.34,3.34,0,0,1-3.369-3.326l-.268-37.785a3.34,3.34,0,0,1,3.312-3.372h0a3.349,3.349,0,0,1,3.374,3.329Z" transform="translate(-417.341 -349.439)" fill="#ffe650"/></g><g transform="translate(266.357 435.617)"><path d="M307.64,489.532a3.352,3.352,0,0,1,3.063,3.6h0A3.35,3.35,0,0,1,307.1,496.2l-37.666-3.068a3.336,3.336,0,0,1-3.059-3.6h0a3.358,3.358,0,0,1,3.608-3.08Z" transform="translate(-266.357 -486.443)" fill="#ffe650"/></g><g transform="translate(280.204 473.985)"><path d="M321.876,547.959A3.344,3.344,0,0,1,326.492,549h0a3.349,3.349,0,0,1-1.042,4.618L293.5,573.805a3.328,3.328,0,0,1-4.611-1.035h0a3.335,3.335,0,0,1,1.042-4.616Z" transform="translate(-288.371 -547.44)" fill="#ffe650"/></g><g transform="translate(328.719 497.239)"><path d="M379.027,586.578a3.347,3.347,0,0,1,4.31-1.954h0a3.369,3.369,0,0,1,1.96,4.318l-13.319,35.365a3.336,3.336,0,0,1-4.3,1.947h0a3.334,3.334,0,0,1-1.969-4.311Z" transform="translate(-365.498 -584.408)" fill="#ffe650"/></g><g transform="translate(412.631 475.283)"><path d="M500.694,555.8a3.327,3.327,0,0,1-1.4-4.511h0a3.33,3.33,0,0,1,4.516-1.4l33.446,17.58a3.327,3.327,0,0,1,1.4,4.509h0a3.344,3.344,0,0,1-4.525,1.415Z" transform="translate(-498.901 -549.504)" fill="#ffe650"/></g><g transform="translate(418.348 429.749)"><path d="M511.722,488.168a3.339,3.339,0,0,1-3.708-2.922h0a3.341,3.341,0,0,1,2.934-3.72l37.532-4.39a3.335,3.335,0,0,1,3.708,2.927h0a3.346,3.346,0,0,1-2.934,3.728Z" transform="translate(-507.99 -477.114)" fill="#ffe650"/></g><g transform="translate(378.395 497.102)"><path d="M463.529,622.065a3.346,3.346,0,0,1-2.036,4.277h0a3.348,3.348,0,0,1-4.262-2.046l-12.568-35.651a3.345,3.345,0,0,1,2.041-4.26h0a3.332,3.332,0,0,1,4.268,2.041Z" transform="translate(-444.473 -584.191)" fill="#ffe650"/></g><g transform="translate(397.652 371.679)"><path d="M481.069,419.981a3.347,3.347,0,0,1-4.7.59h0a3.342,3.342,0,0,1-.578-4.69l23.272-29.8a3.339,3.339,0,0,1,4.693-.581h0a3.351,3.351,0,0,1,.569,4.7Z" transform="translate(-475.087 -384.796)" fill="#ffe650"/></g></g></svg>