<svg xmlns="http://www.w3.org/2000/svg" width="310.154" height="197.561" viewBox="0 0 310.154 197.561"><g transform="translate(-818.338 -357.002)"><path d="M1082.593,420.191a2.89,2.89,0,1,0,4.342-3.816l-21.509-24.582a2.893,2.893,0,1,0-4.358,3.805Z" transform="translate(-75.382 -10.529)" fill="#ffe650"/><path d="M1082.593,420.191a2.89,2.89,0,1,0,4.342-3.816l-21.509-24.582a2.893,2.893,0,1,0-4.358,3.805Z" transform="matrix(0.788, -0.616, 0.616, 0.788, -118.714, 772.311)" fill="#ffe650"/><path d="M1144.819,395.456a2.887,2.887,0,0,0,2.866-2.908l-.235-32.674a2.89,2.89,0,1,0-5.779.044l.235,32.666A2.888,2.888,0,0,0,1144.819,395.456Z" transform="translate(-100.71 0)" fill="#ffe650"/><path d="M1239.242,530.569l-28.915-15.209a2.886,2.886,0,1,0-2.689,5.108l28.9,15.221a2.9,2.9,0,0,0,3.912-1.232A2.851,2.851,0,0,0,1239.242,530.569Z" transform="translate(-120.773 -49.221)" fill="#ffe650"/><path d="M1248.274,457.852l-32.441,3.8a2.9,2.9,0,0,0-2.532,3.217,2.868,2.868,0,0,0,3.2,2.529l32.452-3.788a2.9,2.9,0,0,0-.68-5.754Z" transform="translate(-123.015 -31.407)" fill="#ffe650"/><path d="M1168.724,544.347a2.895,2.895,0,0,0-5.461,1.922l10.87,30.825a2.886,2.886,0,1,0,5.44-1.93Z" transform="translate(-107.385 -57.752)" fill="#ffe650"/><path d="M1192.443,415.35l20.123-25.754a2.89,2.89,0,1,0-4.561-3.551L1187.887,411.8a2.887,2.887,0,1,0,4.556,3.546Z" transform="translate(-114.915 -8.698)" fill="#ffe650"/><path d="M1126.764,418.694a42.372,42.372,0,0,0-41.92,49.875,37.333,37.333,0,0,1,9.824,1.834,33.572,33.572,0,1,1,23.523,23.125,37.1,37.1,0,0,1,2.029,9.795,42.57,42.57,0,1,0,6.544-84.629Z" transform="translate(-82.802 -19.216)" fill="#ffe650"/><path d="M1037.434,517.922c.084-1.015.12-2.043.12-3.078,0-.889-.073-1.763-.136-2.638a37.087,37.087,0,0,0-2.029-9.795,37.3,37.3,0,0,0-33.347-24.959c-.664-.034-1.313-.1-1.982-.1a37.165,37.165,0,0,0-19.39,5.4,42.262,42.262,0,0,0-6.816-16.409,26.274,26.274,0,0,0-5.189-6.23,44.636,44.636,0,0,0-33.973-12.988c-21.645,1.08-38.823,16.849-41.784,37.131a35.694,35.694,0,0,0-11.821-2.009,37.539,37.539,0,0,0-37.5,37.5c0,.384.01.758.042,1.156-10.467,2.864-25.312,8.978-25.291,30.3.021,16.971,15.075,30.781,33.561,30.781l1.778-.039c11.5-.57,59.149.039,59.149.031l.011-.787c.083.01.167.023.251.034l.031.75-.01-.743c6.334.856,21.007.885,55.127.952,0,0,25.687.432,44.3.432h.032c6.989,0,12.993-.06,16.315-.23a31.96,31.96,0,0,0,23.089-12.013,35.6,35.6,0,0,0,8.311-24.119C1059.623,533.066,1050.454,521.937,1037.434,517.922Zm7.46,46.583a22.948,22.948,0,0,1-16.467,8.7c-3.233.162-9.071.215-15.86.215h-.032c-18.548,0-44.132-.432-44.21-.432-21.274-.042-53.542-.125-55.227-.191l-.116,2.079-.036-2.092s-22.032-.28-39.833-.28c-8.553,0-16.137.065-19.9.256l-1.318.032c-13.417,0-24.354-9.687-24.365-21.6-.01-14.177,7.751-18.788,22.095-22.332l3.248-1.378.3-3.262-.156-2.006a18.2,18.2,0,0,1-.235-2.464,28.333,28.333,0,0,1,28.3-28.3,27.808,27.808,0,0,1,13.731,3.724l6.983,3.912-.136-8c-.313-18.546,14.4-33.822,33.488-34.769l1.862-.047a35.693,35.693,0,0,1,22.372,7.8,2.825,2.825,0,0,0,1.193,1,33.5,33.5,0,0,1,11.533,23.6c.036.654,0,1.292-.083,2.956l-.445,11.855,8.311-8.461a28.265,28.265,0,0,1,47.888,25.466l-.936,4.627,4.65.816c11.032,1.941,19.087,10.488,19.6,20.777A26.321,26.321,0,0,1,1044.894,564.5Z" transform="translate(0 -28.051)" fill="#fff"/></g></svg>