<svg xmlns="http://www.w3.org/2000/svg" width="310" height="202" viewBox="0 0 310 202"><g transform="translate(-2052 1527)"><g transform="translate(2052 -1527)" fill="#fff" stroke="#707070" stroke-width="1" opacity="0"><rect width="310" height="202" stroke="none"/><rect x="0.5" y="0.5" width="309" height="201" fill="none"/></g><g transform="translate(-9.729 -4392.103)"><path d="M2342.286,2981.688c-5.344-5.034-12.8-6.6-19.076-3.986-6.622,2.752-10.491,8.245-10.306,14.66.127,5.377,3.08,10.145,7.14,11.608a7.71,7.71,0,0,0,8.556-2.522l-5.919-4.814c-.554-.184-1.872-1.9-1.981-4.4-.092-2.258.818-5.355,5.533-7.347,3.374-1.417,7.595-.45,10.709,2.464,4.21,3.985,5.321,10.364,2.949,17.09-3.427,9.742-11.233,8.268-31.1,1.98-20.851-6.622-49.421-15.685-73.322,7.186-6.991,6.691-22.359,9.742-41.215,8.062-15.748-1.383-32.171-4.238-45.639-15.732-14.1-12.005-27.914-16.744-38.791-18.4a57.823,57.823,0,0,1,34.572,5.885c18.954,9.6,41.768,18.656,60.613,18.656,10.7,0,20.119-2.925,26.815-10.306,14.765-16.261,32.446-14.464,47.993-12.887,13.872,1.451,28.209,2.879,33.114-12.737,2.662-8.51.79-16.456-5.1-21.846-6.161-5.619-15.927-7.461-23.233-4.4-8.3,3.466-9.052,9.132-8.988,11.412a12.242,12.242,0,0,0,8.192,10.768,9.612,9.612,0,0,0,10.786-2.683l-5.9-5.1c-.271.289-.8.922-2.24.416a4.573,4.573,0,0,1-3.035-3.617c-.052-2,2.932-3.454,4.2-3.995,4.56-1.889,10.991-.634,14.936,2.97,2.579,2.338,5.158,6.621,2.918,13.739-2.855,9.167-10.122,8.832-24.868,7.323-15.692-1.588-37.162-3.823-54.556,15.4-16,17.629-55.789,1.266-78.1-10.078a65.671,65.671,0,0,0-25.311-7.088,51.885,51.885,0,0,1,25.069,5.361c15.851,7.715,29.13,9.95,39.873,9.431,15.667-.749,25.906-7.393,30.812-11.516,7.588-6.356,7.4-17.1,3.431-24.011-3.507-5.964-10.945-10.952-21.368-7.082a11.1,11.1,0,0,0-7.059,13.8c1.508,5.136,6.782,9.535,15.189,7.612l-1.394-6.184c-4.641,1-7.036-1-7.7-3.248a4.813,4.813,0,0,1,3.178-6.011c8.206-3.1,12.283,2,13.611,4.33,2.764,4.71,2.764,11.966-1.979,15.95-7.3,6.114-28.146,18.564-63.81,1.209-35.74-17.366-65.681,7.98-65.969,8.245l.41.472c-.173.1-.352.208-.41.242l3.714,5.971v.8c1.037-.287,29.227-4.329,55.311,17.16,15.351,12.679,33.01,16.053,50.031,17.549,3.616.324,7.122.462,10.5.462,16.444,0,29.55-3.731,36.8-10.665,20.585-19.657,44.492-12.046,65.566-5.366,17.015,5.366,34.594,10.986,40.836-6.828C2350.675,2997.323,2348.827,2987.824,2342.286,2981.688Z" transform="translate(0 -8.991)" fill="#fff"/><path d="M2181.424,2949.559c.191-.184.391-.414.592-.644-3.961.08-9.65-2.7-13.761-6.748-6.615-6.508-10.564-15.546-9.512-14.1,3.795,5.251,7.088,9.961,11.429,13.186,5.644,4.2,12.369,5.4,13.291,5.851,4.082-5.943,5.539-15.513-3.663-20.43-4.221-2.118-8.62,1.669-13.883-.8a13.435,13.435,0,0,1-8.655-14.21l-.385-.38c-1.98,6.713-5.021,23.435-1.779,30.748C2160.713,2955.226,2174.342,2956.388,2181.424,2949.559Z" transform="translate(-16.743 0)" fill="#00b612"/></g></g></svg>