<svg xmlns="http://www.w3.org/2000/svg" width="249.252" height="202.175" viewBox="0 0 249.252 202.175"><g transform="translate(-351.169 -1086.493)"><g transform="translate(19.854 27.87)"><path d="M1076.129,411.651a2.05,2.05,0,1,0,3.08-2.707l-15.258-17.438a2.052,2.052,0,1,0-3.091,2.7Z" transform="translate(-581.595 684.327)" fill="#ffe650"/><path d="M15.776,20.845a2.05,2.05,0,1,0,3.08-2.707L3.6.7A2.052,2.052,0,1,0,.507,3.4Z" transform="matrix(0.788, -0.616, 0.616, 0.788, 459.243, 1108.597)" fill="#ffe650"/><path d="M1143.9,384.28a2.048,2.048,0,0,0,2.033-2.063l-.167-23.178a2.05,2.05,0,1,0-4.1.031l.167,23.173A2.049,2.049,0,0,0,1143.9,384.28Z" transform="translate(-623.195 701.621)" fill="#ffe650"/><path d="M1229.605,526.051l-20.512-10.789a2.047,2.047,0,1,0-1.907,3.624l20.5,10.8a2.053,2.053,0,0,0,2.775-.874A2.023,2.023,0,0,0,1229.605,526.051Z" transform="translate(-656.148 620.779)" fill="#ffe650"/><path d="M1238.1,457.847l-23.013,2.692a2.056,2.056,0,0,0-1.8,2.282,2.034,2.034,0,0,0,2.271,1.794l23.021-2.687a2.055,2.055,0,0,0-.483-4.082Z" transform="translate(-659.83 650.037)" fill="#ffe650"/><path d="M1167.09,543.786a2.053,2.053,0,0,0-3.874,1.363l7.711,21.867a2.047,2.047,0,1,0,3.859-1.369Z" transform="translate(-634.159 606.765)" fill="#ffe650"/><path d="M1190.941,406.509l14.275-18.269a2.05,2.05,0,1,0-3.236-2.519l-14.271,18.273a2.048,2.048,0,1,0,3.232,2.515Z" transform="translate(-646.525 687.334)" fill="#ffe650"/><path d="M1114.386,418.694a30.057,30.057,0,0,0-29.736,35.38,26.484,26.484,0,0,1,6.969,1.3,23.815,23.815,0,1,1,16.686,16.4,26.324,26.324,0,0,1,1.439,6.948,30.2,30.2,0,1,0,4.642-60.033Z" transform="translate(-593.782 670.06)" fill="#ffe650"/></g><g transform="translate(142.916 -524.375)"><path d="M429.312,1922.576c-9.915-13.256-9.253-36.115-9.73-28.8-1.236,19.106-8.758,28.8-8.758,28.8a8.43,8.43,0,0,0-.989,3.917c0,5.052,4.582,9.158,10.224,9.158s10.234-4.106,10.234-9.158a8.327,8.327,0,0,0-1-3.917Z" transform="translate(-84.445 -122.608)" fill="#3ddefe"/><path d="M371.381,1697.949a32.112,32.112,0,0,0-6.7-.715,31.749,31.749,0,0,0-16.873,4.8c-3.116-18.265-19.856-31.943-39.466-30.863-18.647.931-33.427,14.575-35.846,32.09a30.865,30.865,0,0,0-10.383-1.808,32.132,32.132,0,0,0-32.1,32.1c0,.38.017.755.053,1.166-8.97,2.443-21.834,7.622-21.808,25.955.009,13.623,11.328,25.313,26.753,26.046l4.723-7.293c-.556.018-1.2.036-1.633.062l-1.147.027c-11.7,0-21.226-8.458-21.235-18.845-.017-12.384,6.746-16.4,19.23-19.5l2.808-1.07.08-2.83-.141-1.523a16.417,16.417,0,0,1-.212-2.194,24.656,24.656,0,0,1,24.633-24.629,24.281,24.281,0,0,1,11.955,3.236l5.668,3.179-.106-6.494c-.282-16.115,12.5-29.383,29.083-30.208l1.615-.04c16.316,0,29.71,12.359,30.487,28.163.035.563-.009,1.125-.079,2.569l-.335,9.6,6.736-6.851a24.6,24.6,0,0,1,41.674,22.172l-.759,3.752,3.779.664c9.615,1.682,16.634,9.136,17.076,18.118.459,9.014-5.766,19.265-15.186,22.231l2.49,6.949a30.193,30.193,0,0,0,20.157-29.549c-.565-11.33-8.476-20.881-19.716-24.269.088-.938.133-1.883.133-2.821A31.861,31.861,0,0,0,391.6,1711.9,30.251,30.251,0,0,0,371.381,1697.949Z" transform="translate(0 -22.348)" fill="#fff"/><path d="M305.6,1905.85c-12.4-16.6-11.566-45.2-12.158-36.036-1.554,23.9-10.975,36.036-10.975,36.036a10.522,10.522,0,0,0-1.236,4.891c0,6.326,5.73,11.463,12.8,11.463s12.793-5.137,12.793-11.463a10.323,10.323,0,0,0-1.245-4.891Z" transform="translate(-30.571 -112.419)" fill="#3ddefe"/><path d="M375.555,1870.547c-10.816-14.5-10.092-39.458-10.612-31.467-1.36,20.872-9.58,31.467-9.58,31.467a9.067,9.067,0,0,0-1.077,4.273c0,5.527,5,10.008,11.178,10.008,6.163,0,11.169-4.481,11.169-10.008a9.178,9.178,0,0,0-1.086-4.273Z" transform="translate(-61.174 -99.639)" fill="#3ddefe"/><path d="M449.545,1845.491c-.786,12.026-5.519,18.126-5.519,18.126a5.229,5.229,0,0,0-.627,2.459c0,3.183,2.879,5.765,6.445,5.765,3.549,0,6.427-2.582,6.427-5.765a5.228,5.228,0,0,0-.618-2.459C449.421,1855.269,449.844,1840.887,449.545,1845.491Z" transform="translate(-98.505 -102.599)" fill="#3ddefe"/></g></g></svg>