<svg xmlns="http://www.w3.org/2000/svg" xmlns:xlink="http://www.w3.org/1999/xlink" width="242.565" height="201.533" viewBox="0 0 242.565 201.533"><defs><linearGradient id="a" x1="0.5" x2="0.5" y2="1" gradientUnits="objectBoundingBox"><stop offset="0" stop-color="#fff"/><stop offset="1" stop-color="gray" stop-opacity="0.988"/></linearGradient></defs><g transform="translate(-409.5 -1378.466)"><path d="M963.3,494.044c.056-.673.08-1.354.08-2.041,0-.589-.048-1.169-.09-1.749a24.587,24.587,0,0,0-1.345-6.494,24.732,24.732,0,0,0-22.11-16.549c-.44-.022-.871-.066-1.314-.066a24.642,24.642,0,0,0-12.857,3.581,28.022,28.022,0,0,0-4.519-10.88,17.421,17.421,0,0,0-3.441-4.131,29.6,29.6,0,0,0-22.526-8.612,29.124,29.124,0,0,0-27.7,24.62,23.668,23.668,0,0,0-7.838-1.332c-13.713,0-29.084,14.422-30.34,25.643,0,.091,10.93-9.229,17.991-7.258,3.591,1,12.731-.007,17.511,4.583,2.159,2.074,6.495,1.572,10.55,4.119,4.468,2.807,5.652,10.99,8.641,11.71,5.267,1.269,4.4-6.49,9.149-6.479,10.372.024,1.94-6.424,10.041-6.123,16.377.61,8.163,2.083,21.377,5.509,15.975,4.143,2.276,18.218,16.3,22.226,18.315,5.234,23.618,19.969,24.87,18.457,15.253-7.592,14.9-25.805,14.58-30.518C979.245,501.486,971.932,496.706,963.3,494.044Z" transform="translate(-154.789 708.479) rotate(17)" fill="url(#a)"/><g transform="translate(-2294.523 1061.225)"><g transform="translate(2704.023 359.121)"><path d="M2887.131,418.437c.077-.92.124-1.832.124-2.741a31.237,31.237,0,0,0-31.2-31.194,30.819,30.819,0,0,0-16.4,4.674c-3.033-17.756-19.3-31.046-38.353-30-18.126.9-32.487,14.167-34.842,31.185a30.016,30.016,0,0,0-10.092-1.757,31.227,31.227,0,0,0-31.191,31.2c0,.371.008.738.038,1.13-8.714,2.373-21.207,7.415-21.2,25.226.014,13.238,11.019,24.6,26.009,25.314l4.591-7.08c-.545.013-1.167.024-1.592.05l-1.116.028c-11.37,0-20.624-8.218-20.628-18.318-.013-12.033,6.547-15.934,18.685-18.944l2.728-1.041.077-2.754-.137-1.478a15.977,15.977,0,0,1-.206-2.133,23.965,23.965,0,0,1,23.936-23.934,23.566,23.566,0,0,1,11.623,3.147l5.509,3.087-.111-6.318c-.271-15.658,12.159-28.553,28.278-29.353l1.57-.045c15.849,0,28.862,12.018,29.622,27.373a23.08,23.08,0,0,1-.077,2.5l-.326,9.329,6.556-6.658a23.724,23.724,0,0,1,17.041-7.169,23.9,23.9,0,0,1,23.456,28.714l-.734,3.649,3.656.639c9.353,1.637,16.178,8.881,16.608,17.61.442,8.765-5.608,18.721-14.76,21.609l2.417,6.757a29.346,29.346,0,0,0,19.594-28.72C2905.748,431.006,2898.054,421.723,2887.131,418.437Z" transform="translate(-2704.023 -359.121)" fill="#fff"/></g><g transform="translate(2745.255 462.973)"><path d="M2800.694,579.749h.013c-12.052-16.13-11.245-43.922-11.816-35.019-1.51,23.229-10.665,35.019-10.665,35.019h0a10.156,10.156,0,0,0-1.193,4.758c0,6.152,5.557,11.14,12.429,11.14s12.434-4.987,12.434-11.14A10.108,10.108,0,0,0,2800.694,579.749Z" transform="translate(-2777.032 -543.012)" fill="#3ddefe"/></g><g transform="translate(2786.499 445.742)"><path d="M2870.73,544.586h.013c-10.521-14.092-9.826-38.353-10.323-30.587-1.321,20.29-9.3,30.587-9.3,30.587h0a8.844,8.844,0,0,0-1.056,4.149c0,5.37,4.865,9.726,10.854,9.726s10.865-4.356,10.865-9.726A8.952,8.952,0,0,0,2870.73,544.586Z" transform="translate(-2850.063 -512.501)" fill="#3ddefe"/></g><g transform="translate(2817.879 476.714)"><path d="M2924.54,596.7h0c-9.623-12.89-8.971-35.1-9.447-27.986-1.193,18.558-8.512,27.986-8.512,27.986h0a8.133,8.133,0,0,0-.953,3.8c0,4.913,4.437,8.9,9.941,8.9,5.475,0,9.933-3.985,9.933-8.9A8.137,8.137,0,0,0,2924.54,596.7Z" transform="translate(-2905.628 -567.342)" fill="#3ddefe"/></g><g transform="translate(2836.83 449.737)"><path d="M2951.091,538.05h0c-6.05-8.113-5.646-22.085-5.934-17.612-.769,11.683-5.359,17.612-5.359,17.612h0a4.932,4.932,0,0,0-.613,2.389c0,3.1,2.8,5.608,6.26,5.608,3.441,0,6.255-2.508,6.255-5.608A4.986,4.986,0,0,0,2951.091,538.05Z" transform="translate(-2939.185 -519.575)" fill="#3ddefe"/></g></g></g></svg>