<svg xmlns="http://www.w3.org/2000/svg" width="231.102" height="218.71" viewBox="0 0 231.102 218.71"><g transform="translate(-864.46 -1613.768)"><g transform="translate(864.46 1613.768)"><path d="M1073.635,1681.525c.088-1.049.137-2.09.137-3.132a35.671,35.671,0,0,0-35.632-35.627,35.229,35.229,0,0,0-18.732,5.332c-3.47-20.286-22.056-35.465-43.817-34.264-20.7,1.026-37.122,16.181-39.8,35.622a34.414,34.414,0,0,0-11.538-2.006,35.675,35.675,0,0,0-35.631,35.634c0,.428.009.845.048,1.3-9.949,2.715-24.241,8.464-24.212,28.819.019,15.122,12.586,28.106,29.711,28.908l5.244-8.085c-.627.012-1.333.037-1.813.056l-1.275.032c-12.988,0-23.565-9.393-23.575-20.916-.019-13.753,7.489-18.21,21.34-21.649l3.117-1.189.088-3.149-.147-1.683a16.967,16.967,0,0,1-.235-2.443,27.376,27.376,0,0,1,27.339-27.337,26.928,26.928,0,0,1,13.273,3.593l6.3,3.529-.127-7.215c-.3-17.887,13.88-32.625,32.3-33.539l1.794-.039c18.115,0,32.975,13.716,33.848,31.268.029.619-.01,1.25-.089,2.848l-.372,10.66,7.48-7.607a27.1,27.1,0,0,1,19.477-8.185,27.376,27.376,0,0,1,27.349,27.334,27.869,27.869,0,0,1-.559,5.468l-.843,4.163,4.186.741c10.684,1.867,18.478,10.136,18.967,20.107.5,10.018-6.391,21.391-16.87,24.692l2.775,7.712a33.526,33.526,0,0,0,22.379-32.806C1094.906,1695.891,1086.1,1685.279,1073.635,1681.525Z" transform="translate(-864.46 -1613.768)" fill="#fff"/></g><g transform="translate(906.297 1731.417)" opacity="0.8"><path d="M934.357,1823.416h2.4v-2.363h-2.4Zm9.361,3.191,1.7,1.681,1.706-1.681-1.706-1.7Zm-12.724-15.956-1.686,1.71,1.706,1.666,1.676-1.666Zm23.1,12.765h2.4v-2.363h-2.4Zm-17.477-22.32h-2.383v2.385h2.383Zm20.055,0h-2.4v2.385h2.4Zm-9.626-3.276-1.706-1.692-1.7,1.692,1.7,1.69Zm11.842,18.1-1.53-3.669,1.53-3.483-2.813,2.928H951.5l1.657-2.563-2.941-.556,3.235-3.287h3.99l-3.647-1.325-1.382-3.649v4.046l-3.176,3.308-.48-3.144-2.646,1.792v-4.455l2.891-3.01-3.441,1.716-3.607-1.579,2.892,2.873v4.455l-2.685-1.607-.442,2.96-3.244-3.308v-4.046l-1.264,3.649-3.754,1.445h4.039l3.235,3.167-3.323.728,2.048,2.391h-4.588l-2.872-2.928,1.382,3.59-1.382,3.561,2.872-3.012h4.588l-2.048,2.664,3.323.529-3.235,3.228h-4.039l3.754,1.306,1.215,3.6.049-3.975,3.117-3.119.569,3.213,2.685-1.995v4.592l-2.892,2.813,3.519-1.549,3.45,1.549-2.813-2.813v-4.592l2.646,1.806.48-3.144,3.235,3.239.069,3.975,1.166-3.522,3.735-1.387h-3.99l-3.235-3.112,3.126-.91-1.843-2.4h4.578Zm-16.939-6.049,1.97,1.826h-2.637Zm.137,5.026-.8-1.99h2.637Zm2.754,1.628-1.784-.734,1.784-1.95Zm0-5.75-1.784-1.83,1.784-.79Zm4.078-.9.686,1.826h-2.637Zm-2.744-1.715,1.892.79-1.892,1.83Zm0,8.433v-2.747l1.892,1.826Zm2.637-1.691-1.843-1.99h2.813Zm10.831-4.3-1.7,1.679,1.7,1.69,1.706-1.69Z" transform="translate(-929.309 -1796.128)" fill="#fff"/></g><g transform="translate(1001.107 1710.569)" opacity="0.5"><path d="M1082.815,1799.2h3.117v-3.073h-3.117Zm12.145,4.134,2.2,2.164,2.215-2.164-2.215-2.216Zm-16.507-20.69-2.186,2.215,2.215,2.154,2.167-2.154Zm29.966,16.556h3.117v-3.073h-3.117Zm-22.664-28.957h-3.088v3.11h3.088Zm26.007,0h-3.108v3.11h3.108ZM1099.273,1766l-2.206-2.184-2.2,2.184,2.2,2.2Zm15.36,23.487-1.99-4.771,1.99-4.5-3.646,3.806h-5.94l2.147-3.345-3.813-.713,4.206-4.259h5.166l-4.735-1.723-1.794-4.727v5.237l-4.107,4.286-.628-4.07-3.421,2.335v-5.788l3.734-3.9-4.46,2.23-4.666-2.051,3.735,3.722v5.788l-3.471-2.1-.578,3.837-4.205-4.286v-5.237l-1.637,4.727-4.872,1.88h5.235l4.2,4.1-4.3.948,2.646,3.11h-5.941l-3.734-3.806,1.8,4.652-1.8,4.622,3.734-3.909h5.941l-2.646,3.453,4.3.681-4.2,4.191h-5.235l4.872,1.686,1.568,4.678.069-5.163,4.048-4.046.735,4.183,3.471-2.584v5.944l-3.735,3.655,4.548-2.008,4.49,2.008-3.646-3.655v-5.944l3.421,2.328.628-4.058,4.185,4.178.088,5.163,1.519-4.558,4.842-1.806h-5.166l-4.206-4.026,4.048-1.191-2.382-3.108h5.94Zm-21.958-7.847,2.539,2.379H1091.8Zm.167,6.5-1.039-2.564h3.411Zm3.568,2.134-2.3-.953,2.3-2.539Zm0-7.467-2.3-2.38,2.3-1.017Zm5.3-1.169.883,2.379h-3.431Zm-3.558-2.228,2.441,1.017-2.441,2.38Zm0,10.937v-3.566l2.441,2.38Zm3.411-2.208-2.4-2.564h3.657Zm14.047-5.566-2.206,2.183,2.206,2.188,2.205-2.188Z" transform="translate(-1076.267 -1763.814)" fill="#fff" opacity="0.7"/></g><g transform="translate(926.48 1790.783)"><path d="M967.142,1923.539h3.127v-3.078h-3.127Zm12.145,4.127,2.206,2.176,2.206-2.176-2.206-2.206Zm-16.507-20.693-2.185,2.215,2.205,2.161,2.186-2.161Zm29.966,16.566h3.108v-3.078h-3.108Zm-22.663-28.966h-3.088v3.112h3.088Zm26.006,0H992.98v3.112h3.108Zm-12.488-4.245-2.206-2.181-2.2,2.181,2.2,2.2Zm15.371,23.482-2-4.769,2-4.49-3.657,3.793h-5.941L991.52,1905l-3.813-.71,4.205-4.269h5.156l-4.735-1.716-1.784-4.734v5.244l-4.107,4.288-.627-4.077-3.431,2.337v-5.783l3.744-3.9-4.46,2.225L977,1891.858l3.735,3.726v5.783l-3.47-2.107-.578,3.847-4.205-4.288v-5.244l-1.637,4.734-4.871,1.882h5.244l4.2,4.1-4.313.946,2.647,3.107h-5.941l-3.735-3.793,1.8,4.637-1.8,4.622,3.735-3.906h5.941l-2.647,3.466,4.313.671-4.2,4.2h-5.244l4.871,1.686,1.568,4.675.069-5.171,4.048-4.038.735,4.18,3.47-2.588v5.955L977,1926.579l4.559-2,4.48,2-3.657-3.642v-5.955l3.431,2.333.627-4.068,4.186,4.18.088,5.171,1.519-4.568,4.833-1.793h-5.156l-4.205-4.034,4.048-1.191-2.383-3.108h5.941ZM977,1905.964l2.539,2.382H976.13Zm.167,6.509-1.039-2.568h3.411Zm3.568,2.137-2.3-.956,2.3-2.539Zm0-7.48-2.3-2.372,2.3-1.015Zm5.3-1.167.882,2.382h-3.431Zm-3.559-2.22,2.441,1.015-2.441,2.372Zm0,10.935v-3.563l2.441,2.377Zm3.4-2.206-2.392-2.568h3.656Zm14.057-5.568-2.206,2.176,2.206,2.2,2.205-2.2Z" transform="translate(-960.594 -1888.148)" fill="#fff" opacity="0.3"/></g><g transform="translate(977.541 1761.822)"><path d="M1044.288,1867.851h2.166V1865.7h-2.166Zm8.44,2.842,1.529,1.525,1.53-1.525-1.53-1.524Zm-11.469-14.36-1.519,1.549,1.529,1.484,1.51-1.484Zm20.82,11.518h2.166V1865.7h-2.166Zm-15.743-20.115h-2.156v2.152h2.156Zm18.066,0h-2.166v2.152h2.166Zm-8.685-2.96-1.529-1.519-1.519,1.519,1.519,1.519Zm10.675,16.311-1.382-3.313,1.382-3.122-2.529,2.627h-4.126l1.49-2.308-2.646-.5,2.921-2.961h3.588l-3.293-1.2-1.245-3.279v3.642l-2.853,2.97-.441-2.823-2.372,1.607v-4.009l2.6-2.706-3.1,1.539-3.245-1.421,2.588,2.588v4.009l-2.411-1.45-.392,2.666-2.921-2.97v-3.642l-1.137,3.279-3.391,1.3h3.646l2.912,2.852-2.99.657,1.833,2.151h-4.126l-2.588-2.627,1.245,3.23-1.245,3.205,2.588-2.71h4.126l-1.833,2.392,2.99.48-2.912,2.907h-3.646l3.391,1.166,1.088,3.254.049-3.588,2.8-2.8.51,2.9,2.411-1.8v4.137l-2.588,2.53,3.166-1.382,3.108,1.382-2.529-2.53v-4.137l2.372,1.628.441-2.823,2.9,2.9.059,3.588,1.059-3.166,3.372-1.254H1061.5l-2.921-2.8,2.813-.828-1.657-2.152h4.126Zm-15.253-5.45,1.765,1.642h-2.373Zm.118,4.514-.726-1.774h2.373Zm2.47,1.475-1.6-.657,1.6-1.759Zm0-5.185-1.6-1.643,1.6-.71Zm3.686-.8.617,1.642h-2.382Zm-2.47-1.549,1.7.71-1.7,1.643Zm0,7.607v-2.485l1.7,1.652Zm2.372-1.544-1.666-1.774h2.539Zm9.763-3.857-1.529,1.51,1.529,1.529,1.529-1.529Z" transform="translate(-1039.74 -1843.257)" fill="#fff"/></g><g transform="translate(957.593 1727.114)"><path d="M1012.015,1806.757h1.529v-1.51h-1.529Zm5.94,2.012,1.079,1.074,1.078-1.074-1.078-1.072Zm-8.067-10.1-1.068,1.081,1.078,1.054,1.059-1.054Zm14.655,8.092h1.519v-1.51h-1.519Zm-11.087-14.15h-1.509v1.514h1.509Zm12.714,0h-1.519v1.514h1.519Zm-6.1-2.083-1.088-1.066-1.068,1.066,1.068,1.074Zm7.508,11.481-.97-2.335.97-2.2-1.794,1.863H1022.9l1.039-1.635-1.863-.352,2.059-2.083h2.529l-2.323-.846-.872-2.3v2.556l-2.01,2.1-.3-1.992-1.677,1.134v-2.821l1.833-1.911-2.186,1.1-2.284-1.01,1.833,1.823v2.821l-1.706-1.014-.274,1.872-2.059-2.1v-2.556l-.8,2.3-2.382.926h2.568l2.048,2-2.108.465,1.294,1.522h-2.9l-1.833-1.863.883,2.274-.883,2.259,1.833-1.914h2.9l-1.294,1.691,2.108.335-2.048,2.052h-2.568l2.382.813.774,2.292.03-2.524,1.98-1.97.353,2.039,1.706-1.262v2.916l-1.833,1.775,2.225-.978,2.2.978-1.784-1.775v-2.916l1.677,1.142.3-1.995,2.048,2.046.049,2.524.735-2.227,2.372-.877h-2.529l-2.059-1.97,1.99-.593-1.167-1.515h2.892Zm-10.743-3.837,1.245,1.167h-1.666Zm.088,3.181-.51-1.257h1.666Zm1.745,1.041-1.127-.461,1.127-1.237Zm0-3.656-1.127-1.155,1.127-.5Zm2.588-.566.432,1.167h-1.677Zm-1.745-1.086,1.2.5-1.2,1.155Zm0,5.345v-1.735l1.2,1.154Zm1.677-1.078-1.177-1.257h1.794Zm6.871-2.715-1.078,1.053,1.078,1.073,1.068-1.073Z" transform="translate(-1008.82 -1789.458)" fill="#fff"/></g><g transform="translate(1021.887 1769.551)"><path d="M1112.135,1874.994h1.735v-1.715h-1.735Zm6.783,2.3,1.225,1.211,1.226-1.211-1.226-1.235Zm-9.224-11.552-1.215,1.24,1.225,1.2,1.225-1.2Zm16.723,9.248h1.745v-1.715h-1.745Zm-12.645-16.164h-1.725v1.725h1.725Zm14.518,0h-1.735v1.725h1.735Zm-6.98-2.382-1.225-1.211-1.226,1.211,1.226,1.235Zm8.587,13.115-1.117-2.661,1.117-2.514-2.039,2.123h-3.323l1.206-1.858-2.137-.4,2.343-2.392h2.892l-2.646-.951-1-2.637v2.921l-2.284,2.4-.353-2.284-1.912,1.3v-3.225l2.078-2.186-2.48,1.254-2.608-1.146,2.088,2.078v3.225l-1.941-1.166-.323,2.146-2.352-2.4v-2.921l-.9,2.637-2.726,1.044h2.921l2.343,2.3-2.4.53,1.47,1.73H1112.5l-2.078-2.123,1,2.6-1,2.577,2.078-2.176h3.313l-1.47,1.922,2.4.382-2.343,2.328h-2.921l2.726.946.872,2.617.03-2.882,2.264-2.255.412,2.333,1.941-1.451v3.324l-2.088,2.034,2.549-1.117,2.49,1.117-2.029-2.034v-3.324l1.912,1.314.353-2.29,2.333,2.348.049,2.882.843-2.554,2.705-1.01h-2.892l-2.343-2.25,2.265-.652-1.333-1.73h3.323Zm-12.263-4.381,1.422,1.328h-1.911Zm.088,3.637-.578-1.432h1.911Zm2,1.186-1.294-.529,1.294-1.422Zm0-4.166-1.294-1.333,1.294-.564Zm2.95-.657.5,1.328h-1.921Zm-1.98-1.241,1.363.564-1.363,1.333Zm0,6.113v-2l1.363,1.329Zm1.9-1.235-1.343-1.432h2.049Zm7.842-3.117-1.235,1.215,1.235,1.235,1.226-1.235Z" transform="translate(-1108.478 -1855.237)" fill="#fff"/></g></g></svg>