<svg xmlns="http://www.w3.org/2000/svg" xmlns:xlink="http://www.w3.org/1999/xlink" width="270.61" height="309.472" viewBox="0 0 270.61 309.472"><defs><linearGradient id="a" x1="0.5" x2="0.5" y2="1" gradientUnits="objectBoundingBox"><stop offset="0" stop-color="#fff"/><stop offset="1" stop-color="gray" stop-opacity="0.988"/></linearGradient><linearGradient id="b" x1="0.5" x2="0.16" y2="0.933" gradientUnits="objectBoundingBox"><stop offset="0" stop-color="#4d8fff"/><stop offset="0.432" stop-color="#b6b2ff"/><stop offset="1" stop-color="#ff52c0"/></linearGradient></defs><g transform="translate(-706 -784.028)"><path d="M963.3,494.044c.056-.673.08-1.354.08-2.041,0-.589-.048-1.169-.09-1.749a24.587,24.587,0,0,0-1.345-6.494,24.732,24.732,0,0,0-22.11-16.549c-.44-.022-.871-.066-1.314-.066a24.642,24.642,0,0,0-12.857,3.581,28.022,28.022,0,0,0-4.519-10.88,17.421,17.421,0,0,0-3.441-4.131,29.6,29.6,0,0,0-22.526-8.612,29.124,29.124,0,0,0-27.7,24.62,23.668,23.668,0,0,0-7.838-1.332c-13.713,0-29.788,9.774-31.043,21,0,.091,11.633-4.581,18.694-2.611,3.591,1,12.731-.007,17.511,4.583,2.159,2.074,6.495,1.572,10.55,4.119,4.468,2.807,5.652,10.99,8.641,11.71,5.267,1.269,4.4-6.49,9.149-6.479,10.372.024,1.94-6.424,10.041-6.123,16.377.61,8.163,2.083,21.377,5.509,15.975,4.143,11.83,13.07,16.3,22.226,18.315,5.234,23.618,19.969,24.87,18.457,15.253-7.592,14.9-25.805,14.58-30.518C979.245,501.486,971.932,496.706,963.3,494.044Z" transform="translate(169.756 114.246) rotate(17)" fill="url(#a)"/><g transform="translate(-2571.263 520.541)"><g transform="translate(3277.263 300.959)"><path d="M3493.037,370.855c.107-1.077.152-2.151.152-3.228a36.8,36.8,0,0,0-36.767-36.755,36.367,36.367,0,0,0-19.323,5.5c-3.561-20.919-22.748-36.578-45.2-35.349-21.367,1.069-38.284,16.7-41.061,36.755a35.211,35.211,0,0,0-11.886-2.07,36.808,36.808,0,0,0-36.767,36.759c0,.44.009.872.05,1.335-10.268,2.8-25,8.732-24.976,29.731.025,15.6,12.983,28.987,30.649,29.826l5.41-8.35c-.647.021-1.361.038-1.875.066l-1.316.033c-13.393,0-24.3-9.685-24.319-21.586,0-14.177,7.72-18.781,22.024-22.33l3.22-1.221.091-3.243-.167-1.749a17.767,17.767,0,0,1-.228-2.511,28.232,28.232,0,0,1,28.2-28.207,27.847,27.847,0,0,1,13.692,3.709l6.491,3.638-.131-7.437c-.313-18.46,14.329-33.656,33.329-34.594l1.841-.051c18.687,0,34.011,14.16,34.911,32.258a27.1,27.1,0,0,1-.091,2.945l-.384,10.986,7.72-7.844a28.184,28.184,0,0,1,48.305,19.753,28.294,28.294,0,0,1-.576,5.636l-.874,4.307,4.317.751c11.016,1.931,19.061,10.466,19.572,20.755.521,10.322-6.6,22.062-17.392,25.462l2.856,7.958a34.569,34.569,0,0,0,23.076-33.845C3514.98,385.675,3505.905,374.741,3493.037,370.855Z" transform="translate(-3277.263 -300.959)" fill="#fff"/></g><g transform="translate(3303.619 424.523)"><path d="M3338.288,519.888h.025c-10.911-14.609-10.182-39.761-10.719-31.709-1.354,21.036-9.641,31.709-9.641,31.709h0a9.341,9.341,0,0,0-1.088,4.3c0,5.576,5.046,10.092,11.266,10.092s11.254-4.516,11.254-10.092A9.174,9.174,0,0,0,3338.288,519.888Z" transform="translate(-3316.865 -486.625)" fill="#3ddefe"/></g><g transform="translate(3351.873 387.481)"><path d="M3416.654,479.639h0c-9.393-12.592-8.767-34.277-9.222-27.332-1.178,18.138-8.322,27.332-8.322,27.332h0a7.888,7.888,0,0,0-.94,3.714c0,4.8,4.343,8.7,9.717,8.7s9.693-3.9,9.693-8.7A8.112,8.112,0,0,0,3416.654,479.639Z" transform="translate(-3398.17 -450.966)" fill="#3ddefe"/></g><g transform="translate(3403.365 374.453)"><path d="M3416.654,479.639h0c-9.393-12.592-8.767-34.277-9.222-27.332-1.178,18.138-8.322,27.332-8.322,27.332h0a7.888,7.888,0,0,0-.94,3.714c0,4.8,4.343,8.7,9.717,8.7s9.693-3.9,9.693-8.7A8.112,8.112,0,0,0,3416.654,479.639Z" transform="translate(-3398.17 -450.966)" fill="#3ddefe"/></g><g transform="translate(3393.306 433.015)"><path d="M3408.866,467.557h0c-5.435-7.286-5.073-19.834-5.336-15.815-.682,10.5-4.816,15.815-4.816,15.815h0a4.566,4.566,0,0,0-.544,2.149c0,2.778,2.513,5.032,5.623,5.032a5.341,5.341,0,0,0,5.608-5.032A4.7,4.7,0,0,0,3408.866,467.557Z" transform="translate(-3398.17 -450.966)" fill="#3ddefe"/></g><g transform="translate(3462.773 441.396)"><path d="M3498.82,537.748h.009c-7.056-9.43-6.572-25.687-6.917-20.482-.88,13.593-6.229,20.482-6.229,20.482h0a6.027,6.027,0,0,0-.7,2.786c0,3.592,3.246,6.51,7.276,6.51,4.005,0,7.266-2.918,7.266-6.51A5.9,5.9,0,0,0,3498.82,537.748Z" transform="translate(-3484.981 -516.262)" fill="#3ddefe"/></g><g transform="translate(3439.54 397.714)"><path d="M3537.11,471.216h.011c-8.156-10.916-7.61-29.739-7.994-23.71-1.031,15.732-7.219,23.71-7.219,23.71h0a6.972,6.972,0,0,0-.809,3.224c0,4.166,3.756,7.546,8.414,7.546s8.413-3.379,8.413-7.546A6.867,6.867,0,0,0,3537.11,471.216Z" transform="translate(-3521.098 -446.342)" fill="#3ddefe"/></g><g transform="translate(3398.922 421.333)"><path d="M3404.2,615.391l1.133-1.753,39.7-61.237-38.572-.065,32.834-52.43h3.179l-22.227,45.635,41.4.207Z" transform="translate(-3404.202 -499.907)" fill="url(#b)"/></g><g transform="translate(3327.022 433.363)"><path d="M3404.2,639.5l1.37-2.118,47.991-74.023-46.625-.079,39.689-63.377h3.842L3423.6,555.07l50.04.25Z" transform="translate(-3404.202 -499.907)" fill="url(#b)"/></g></g></g></svg>