<svg xmlns="http://www.w3.org/2000/svg" xmlns:xlink="http://www.w3.org/1999/xlink" width="259.181" height="295.473" viewBox="0 0 259.181 295.473"><defs><linearGradient id="a" x1="0.5" x2="0.5" y2="1" gradientUnits="objectBoundingBox"><stop offset="0" stop-color="#4d8fff"/><stop offset="0.432" stop-color="#b6b2ff"/><stop offset="1" stop-color="#ff52c0"/></linearGradient></defs><g transform="translate(-3278.484 -930.737)"><g transform="translate(3278.484 930.737)"><path d="M3513.083,1006.726c.109-1.168.159-2.341.159-3.507a40.011,40.011,0,0,0-39.974-39.96,39.519,39.519,0,0,0-21.009,5.981c-3.875-22.746-24.736-39.77-49.148-38.43-23.225,1.158-41.612,18.157-44.635,39.957a38.334,38.334,0,0,0-12.918-2.25,40.015,40.015,0,0,0-39.974,39.963c0,.478.016.954.05,1.457-11.159,3.037-27.177,9.49-27.151,32.319.023,16.961,14.117,31.519,33.318,32.429l5.888-9.076c-.709.017-1.484.035-2.039.066l-1.436.041c-14.555,0-26.418-10.532-26.434-23.474-.012-15.411,8.4-20.419,23.939-24.272l3.506-1.328.1-3.532-.176-1.9a18.735,18.735,0,0,1-.258-2.734,30.7,30.7,0,0,1,30.667-30.665,30.233,30.233,0,0,1,14.88,4.032l7.063,3.958-.143-8.092c-.34-20.066,15.574-36.584,36.236-37.6l1.995-.058c20.323,0,36.978,15.394,37.961,35.071a30.647,30.647,0,0,1-.1,3.2l-.417,11.945,8.388-8.531a30.644,30.644,0,0,1,52.517,21.479,30.864,30.864,0,0,1-.626,6.126l-.947,4.678,4.7.817c11.978,2.1,20.717,11.384,21.279,22.568.566,11.225-7.18,23.985-18.915,27.685l3.1,8.649c14.809-4.92,25.924-20.231,25.089-36.794C3536.928,1022.835,3527.067,1010.948,3513.083,1006.726Z" transform="translate(-3278.484 -930.737)" fill="#fff"/></g><g transform="translate(3324.456 1074.44)"><path d="M3342.02,1281.113l1.484-2.3,52.176-80.478-50.687-.088,43.151-68.9h4.178l-29.216,59.977,54.4.269Z" transform="translate(-3342.02 -1129.344)" fill="url(#a)"/></g><g transform="translate(3404.952 1058.32)"><path d="M3453.271,1243.125l1.33-2.064,46.78-72.147-45.438-.077,38.682-61.772h3.738l-26.2,53.771,48.8.236Z" transform="translate(-3453.271 -1107.066)" fill="url(#a)"/></g></g></svg>